<svg width="20" height="25" viewBox="0 0 20 25" fill="none" xmlns="http://www.w3.org/2000/svg">
<path d="M16.7458 13.3309C16.7696 11.4818 17.7627 9.73217 19.338 8.76366C18.3442 7.34431 16.6796 6.4444 14.9477 6.39021C13.1006 6.19632 11.3098 7.49552 10.3685 7.49552C9.40905 7.49552 7.9598 6.40946 6.39919 6.44157C4.36502 6.50729 2.46865 7.66381 1.47898 9.44222C-0.648418 13.1255 0.93843 18.5386 2.9763 21.5159C3.99589 22.9738 5.1875 24.6023 6.7467 24.5445C8.27246 24.4813 8.84231 23.5716 10.684 23.5716C12.5087 23.5716 13.0433 24.5445 14.6341 24.5078C16.2714 24.4813 17.3029 23.0435 18.2867 21.5718C19.0193 20.533 19.583 19.3849 19.957 18.17C18.0329 17.3562 16.748 15.42 16.7458 13.3309Z" fill="black"/>
<path d="M13.741 4.43221C14.6336 3.36058 15.0734 1.98318 14.9669 0.592529C13.6031 0.735772 12.3433 1.38759 11.4386 2.4181C10.5539 3.42496 10.0935 4.77813 10.1805 6.11563C11.5448 6.12968 12.886 5.49553 13.741 4.43221Z" fill="black"/>
</svg>
