<svg width="565" height="399" viewBox="0 0 565 399" fill="none" xmlns="http://www.w3.org/2000/svg">
<g clip-path="url(#clip0_152_2778)">
<g clip-path="url(#clip1_152_2778)">
<path fill-rule="evenodd" clip-rule="evenodd" d="M369.704 218.263C379.317 218.263 387.112 225.881 387.112 235.277V269.309C387.112 278.707 379.317 286.326 369.704 286.326H317.478C307.864 286.326 300.069 278.707 300.069 269.309V235.277C300.069 225.881 307.864 218.263 317.478 218.263H369.704ZM343.591 235.277C336.38 235.277 330.534 240.992 330.534 248.041C330.534 255.089 336.38 260.802 343.591 260.802C350.802 260.802 356.647 255.089 356.647 248.041C356.647 240.992 350.802 235.277 343.591 235.277ZM343.591 167.214C358.013 167.214 369.704 178.642 369.704 192.739V209.753H356.647V192.739C356.647 185.69 350.802 179.975 343.591 179.975C336.38 179.975 330.534 185.69 330.534 192.739V209.753H317.478V192.739C317.478 178.642 329.169 167.214 343.591 167.214Z" fill="url(#paint0_linear_152_2778)"/>
<path opacity="0.05" d="M343.018 789.114C653.908 789.114 905.935 537.088 905.935 226.197C905.935 -84.6928 653.908 -336.719 343.018 -336.719C32.128 -336.719 -219.898 -84.6928 -219.898 226.197C-219.898 537.088 32.128 789.114 343.018 789.114Z" stroke="#99BCFE" stroke-width="1.1453"/>
<path opacity="0.08" d="M343.018 631.062C566.619 631.062 747.883 449.798 747.883 226.197C747.883 2.59683 566.619 -178.667 343.018 -178.667C119.418 -178.667 -61.8462 2.59683 -61.8462 226.197C-61.8462 449.798 119.418 631.062 343.018 631.062Z" stroke="#99BCFE" stroke-width="1.1453"/>
<path opacity="0.1" d="M343.018 491.335C489.45 491.335 608.156 372.629 608.156 226.197C608.156 79.766 489.45 -38.9402 343.018 -38.9402C196.587 -38.9402 77.8806 79.766 77.8806 226.197C77.8806 372.629 196.587 491.335 343.018 491.335Z" stroke="#99BCFE" stroke-width="1.1453"/>
<path opacity="0.15" d="M343.018 381.386C428.726 381.386 498.207 311.906 498.207 226.197C498.207 140.489 428.726 71.0088 343.018 71.0088C257.31 71.0088 187.83 140.489 187.83 226.197C187.83 311.906 257.31 381.386 343.018 381.386Z" stroke="#99BCFE" stroke-width="1.1453"/>
</g>
</g>
<defs>
<linearGradient id="paint0_linear_152_2778" x1="343.591" y1="167.214" x2="343.591" y2="286.326" gradientUnits="userSpaceOnUse">
<stop stop-color="#5518E7"/>
<stop offset="1" stop-color="#6E40FF"/>
</linearGradient>
<clipPath id="clip0_152_2778">
<rect width="687.182" height="453.54" fill="white"/>
</clipPath>
<clipPath id="clip1_152_2778">
<rect width="1126.98" height="1126.98" fill="white" transform="translate(-219.898 -336.719)"/>
</clipPath>
</defs>
</svg>
