<svg width="14" height="14" viewBox="0 0 14 14" fill="none" xmlns="http://www.w3.org/2000/svg">
<path d="M7 0.743408C5.71442 0.743408 4.45772 1.12463 3.3888 1.83886C2.31988 2.55308 1.48676 3.56825 0.994786 4.75597C0.502816 5.94369 0.374095 7.25062 0.624899 8.5115C0.875703 9.77237 1.49477 10.9306 2.40381 11.8396C3.31285 12.7486 4.47104 13.3677 5.73192 13.6185C6.99279 13.8693 8.29973 13.7406 9.48744 13.2486C10.6752 12.7567 11.6903 11.9235 12.4046 10.8546C13.1188 9.7857 13.5 8.52899 13.5 7.24341C13.4982 5.52006 12.8128 3.86782 11.5942 2.64922C10.3756 1.43063 8.72335 0.745228 7 0.743408ZM7.5 12.7203V8.74341H9C9.13261 8.74341 9.25979 8.69073 9.35356 8.59696C9.44732 8.50319 9.5 8.37602 9.5 8.24341C9.5 8.1108 9.44732 7.98362 9.35356 7.88985C9.25979 7.79609 9.13261 7.74341 9 7.74341H7.5V6.24341C7.5 5.97819 7.60536 5.72384 7.7929 5.5363C7.98043 5.34877 8.23479 5.24341 8.5 5.24341H9.5C9.63261 5.24341 9.75979 5.19073 9.85356 5.09696C9.94732 5.00319 10 4.87602 10 4.74341C10 4.6108 9.94732 4.48362 9.85356 4.38985C9.75979 4.29609 9.63261 4.24341 9.5 4.24341H8.5C7.96957 4.24341 7.46086 4.45412 7.08579 4.82919C6.71072 5.20427 6.5 5.71298 6.5 6.24341V7.74341H5C4.86739 7.74341 4.74022 7.79609 4.64645 7.88985C4.55268 7.98362 4.5 8.1108 4.5 8.24341C4.5 8.37602 4.55268 8.50319 4.64645 8.59696C4.74022 8.69073 4.86739 8.74341 5 8.74341H6.5V12.7203C5.0905 12.5916 3.78485 11.9245 2.85465 10.8578C1.92445 9.791 1.4413 8.4067 1.5057 6.9928C1.5701 5.5789 2.1771 4.24425 3.20043 3.26647C4.22376 2.2887 5.58464 1.74306 7 1.74306C8.41537 1.74306 9.77625 2.2887 10.7996 3.26647C11.8229 4.24425 12.4299 5.5789 12.4943 6.9928C12.5587 8.4067 12.0756 9.791 11.1454 10.8578C10.2152 11.9245 8.90951 12.5916 7.5 12.7203Z" fill="#E5E5E5"/>
</svg>
