<svg width="24" height="24" viewBox="0 0 24 24" fill="none" xmlns="http://www.w3.org/2000/svg">
<g clip-path="url(#clip0_326_14391)">
<path d="M0.746277 16.1769C2.44179 20.7464 6.84031 24.003 11.9999 24.003C17.1595 24.003 21.558 20.7464 23.2535 16.1769L11.9999 15.1334L0.746277 16.1769Z" fill="#FFDA44"/>
<path d="M11.9999 0.00268555C6.84031 0.00268555 2.44179 3.25919 0.746277 7.82879L11.9999 8.87223L23.2535 7.82875C21.558 3.25919 17.1595 0.00268555 11.9999 0.00268555Z" fill="black"/>
<path d="M0.746452 7.82776C0.264108 9.12774 6.10352e-05 10.5338 6.10352e-05 12.0016C6.10352e-05 13.4695 0.264108 14.8756 0.746452 16.1755H23.2537C23.7361 14.8756 24.0001 13.4695 24.0001 12.0016C24.0001 10.5338 23.7361 9.12774 23.2537 7.82776H0.746452Z" fill="#D80027"/>
</g>
<defs>
<clipPath id="clip0_326_14391">
<rect width="24" height="24" fill="white" transform="translate(0 0.00195312)"/>
</clipPath>
</defs>
</svg>
