<svg width="24" height="24" viewBox="0 0 24 24" fill="none" xmlns="http://www.w3.org/2000/svg">
<g clip-path="url(#clip0_326_14395)">
<path d="M0 12.0011C0 13.4689 0.264047 14.875 0.746391 16.175L12 16.6967L23.2536 16.175C23.736 14.875 24 13.4689 24 12.0011C24 10.5332 23.736 9.12717 23.2536 7.82719L12 7.30542L0.746391 7.82714C0.264047 9.12717 0 10.5332 0 12.0011Z" fill="#FFDA44"/>
<path d="M11.9998 0.000976562C6.84019 0.000976562 2.44167 3.25748 0.746155 7.82709H23.2534C21.5579 3.25748 17.1593 0.000976562 11.9998 0.000976562Z" fill="#D80027"/>
<path d="M23.2536 16.176H0.746338C2.44185 20.7456 6.84037 24.0021 11.9999 24.0021C17.1595 24.0021 21.558 20.7456 23.2536 16.176Z" fill="#496E2D"/>
<path d="M11.9998 7.82825L13.0358 11.0167H16.3886L13.6763 12.9875L14.7123 16.176L11.9998 14.2054L9.28741 16.176L10.3235 12.9875L7.61121 11.0167H10.9639L11.9998 7.82825Z" fill="black"/>
</g>
<defs>
<clipPath id="clip0_326_14395">
<rect width="24" height="24" fill="white" transform="translate(0 0.00195312)"/>
</clipPath>
</defs>
</svg>
