<svg width="24" height="24" viewBox="0 0 24 24" fill="none" xmlns="http://www.w3.org/2000/svg">
<g clip-path="url(#clip0_326_14403)">
<path d="M12 24.002C18.6274 24.002 24 18.6294 24 12.002C24 5.37454 18.6274 0.00195312 12 0.00195312C5.37258 0.00195312 0 5.37454 0 12.002C0 18.6294 5.37258 24.002 12 24.002Z" fill="#F0F0F0"/>
<path d="M2.48069 4.69495C1.53808 5.92134 0.827311 7.33485 0.413452 8.87043H6.65617L2.48069 4.69495Z" fill="#0052B4"/>
<path d="M23.587 8.87051C23.1731 7.33497 22.4623 5.92146 21.5198 4.69507L17.3444 8.87051H23.587Z" fill="#0052B4"/>
<path d="M0.413452 15.1322C0.827359 16.6677 1.53812 18.0812 2.48069 19.3076L6.65603 15.1322H0.413452Z" fill="#0052B4"/>
<path d="M19.3056 2.48171C18.0792 1.5391 16.6657 0.828335 15.1301 0.414429V6.6571L19.3056 2.48171Z" fill="#0052B4"/>
<path d="M4.69397 21.5196C5.92036 22.4622 7.33388 23.173 8.86941 23.5869V17.3442L4.69397 21.5196Z" fill="#0052B4"/>
<path d="M8.86936 0.414429C7.33383 0.828335 5.92031 1.5391 4.69397 2.48166L8.86936 6.65705V0.414429Z" fill="#0052B4"/>
<path d="M15.1301 23.5869C16.6657 23.173 18.0792 22.4622 19.3055 21.5196L15.1301 17.3442V23.5869Z" fill="#0052B4"/>
<path d="M17.3444 15.1322L21.5198 19.3076C22.4623 18.0813 23.1731 16.6677 23.587 15.1322H17.3444Z" fill="#0052B4"/>
<path d="M23.8984 10.4367H13.5653H13.5653V0.103531C13.0529 0.0368281 12.5305 0.00195312 12 0.00195312C11.4694 0.00195312 10.9471 0.0368281 10.4348 0.103531V10.4367V10.4367H0.101578C0.034875 10.9491 0 11.4715 0 12.002C0 12.5325 0.034875 13.0548 0.101578 13.5672H10.4347H10.4347V23.9004C10.9471 23.9671 11.4694 24.002 12 24.002C12.5305 24.002 13.0529 23.9671 13.5652 23.9004V13.5673V13.5672H23.8984C23.9651 13.0548 24 12.5325 24 12.002C24 11.4715 23.9651 10.9491 23.8984 10.4367Z" fill="#D80027"/>
<path d="M15.1304 15.1332L20.4852 20.488C20.7315 20.2419 20.9665 19.9845 21.1906 19.7177L16.6062 15.1332H15.1304V15.1332Z" fill="#D80027"/>
<path d="M8.86951 15.1332H8.86941L3.51465 20.4879C3.76084 20.7342 4.01823 20.9692 4.28504 21.1933L8.86951 16.6088V15.1332Z" fill="#D80027"/>
<path d="M8.86939 8.87107V8.87097L3.51458 3.51611C3.2683 3.7623 3.03336 4.01969 2.8092 4.2865L7.39372 8.87102H8.86939V8.87107Z" fill="#D80027"/>
<path d="M15.1304 8.87212L20.4853 3.51722C20.2391 3.27094 19.9817 3.036 19.7149 2.81189L15.1304 7.39641V8.87212Z" fill="#D80027"/>
</g>
<defs>
<clipPath id="clip0_326_14403">
<rect width="24" height="24" fill="white" transform="translate(0 0.00195312)"/>
</clipPath>
</defs>
</svg>
