<svg width="24" height="24" viewBox="0 0 24 24" fill="none" xmlns="http://www.w3.org/2000/svg">
<g clip-path="url(#clip0_326_14424)">
<path d="M12 24.002C18.6274 24.002 24 18.6294 24 12.002C24 5.37454 18.6274 0.00195312 12 0.00195312C5.37258 0.00195312 0 5.37454 0 12.002C0 18.6294 5.37258 24.002 12 24.002Z" fill="#F0F0F0"/>
<path d="M11.4779 12.0019H23.9996C23.9996 10.9188 23.8552 9.86957 23.5862 8.87146H11.4779V12.0019Z" fill="#D80027"/>
<path d="M11.4779 5.74044H22.2383C21.5038 4.54175 20.5645 3.48224 19.4694 2.60999H11.4779V5.74044Z" fill="#D80027"/>
<path d="M11.9997 24.0019C14.8239 24.0019 17.4197 23.0258 19.4695 21.3932H4.52991C6.57975 23.0258 9.17555 24.0019 11.9997 24.0019Z" fill="#D80027"/>
<path d="M1.76104 18.2618H22.2385C22.8282 17.2995 23.2856 16.2476 23.5864 15.1313H0.413147C0.713944 16.2476 1.1713 17.2995 1.76104 18.2618Z" fill="#D80027"/>
<path d="M5.55863 1.87592H6.65217L5.63498 2.61491L6.02353 3.81064L5.00639 3.07166L3.98925 3.81064L4.32487 2.77766C3.42928 3.52367 2.64431 4.3977 1.99744 5.37158H2.34783L1.70034 5.84197C1.59947 6.01025 1.50272 6.1812 1.41 6.35469L1.71919 7.3063L1.14234 6.88719C0.998953 7.19098 0.867797 7.50162 0.749906 7.81873L1.09055 8.86724H2.34783L1.33064 9.60622L1.71919 10.802L0.702047 10.063L0.0927656 10.5057C0.0317812 10.9959 0 11.4952 0 12.002H12C12 5.37458 12 4.59327 12 0.00195312C9.62944 0.00195312 7.41961 0.689609 5.55863 1.87592ZM6.02353 10.802L5.00639 10.063L3.98925 10.802L4.3778 9.60622L3.36061 8.86724H4.61789L5.00639 7.6715L5.39489 8.86724H6.65217L5.63498 9.60622L6.02353 10.802ZM5.63498 6.11056L6.02353 7.3063L5.00639 6.56731L3.98925 7.3063L4.3778 6.11056L3.36061 5.37158H4.61789L5.00639 4.17584L5.39489 5.37158H6.65217L5.63498 6.11056ZM10.3279 10.802L9.31073 10.063L8.29359 10.802L8.68214 9.60622L7.66495 8.86724H8.92223L9.31073 7.6715L9.69923 8.86724H10.9565L9.93933 9.60622L10.3279 10.802ZM9.93933 6.11056L10.3279 7.3063L9.31073 6.56731L8.29359 7.3063L8.68214 6.11056L7.66495 5.37158H8.92223L9.31073 4.17584L9.69923 5.37158H10.9565L9.93933 6.11056ZM9.93933 2.61491L10.3279 3.81064L9.31073 3.07166L8.29359 3.81064L8.68214 2.61491L7.66495 1.87592H8.92223L9.31073 0.680187L9.69923 1.87592H10.9565L9.93933 2.61491Z" fill="#0052B4"/>
</g>
<defs>
<clipPath id="clip0_326_14424">
<rect width="24" height="24" fill="white" transform="translate(0 0.00195312)"/>
</clipPath>
</defs>
</svg>
