<svg width="24" height="24" viewBox="0 0 24 24" fill="none" xmlns="http://www.w3.org/2000/svg">
<g clip-path="url(#clip0_326_14420)">
<path d="M12 24.002C18.6274 24.002 24 18.6294 24 12.002C24 5.37454 18.6274 0.00195312 12 0.00195312C5.37258 0.00195312 0 5.37454 0 12.002C0 18.6294 5.37258 24.002 12 24.002Z" fill="#F0F0F0"/>
<path d="M23.9999 12.0019C23.9999 6.84232 20.7434 2.44381 16.1738 0.748291V23.2556C20.7434 21.56 23.9999 17.1615 23.9999 12.0019Z" fill="#D80027"/>
<path d="M0.000427246 12.0028C0.000427246 17.1623 3.25697 21.5609 7.82654 23.2564V0.749146C3.25697 2.44466 0.000427246 6.84318 0.000427246 12.0028Z" fill="#0052B4"/>
</g>
<defs>
<clipPath id="clip0_326_14420">
<rect width="24" height="24" fill="white" transform="translate(0 0.00195312)"/>
</clipPath>
</defs>
</svg>
