<svg width="24" height="24" viewBox="0 0 24 24" fill="none" xmlns="http://www.w3.org/2000/svg">
<g clip-path="url(#clip0_326_14440)">
<path d="M12 24.002C18.6274 24.002 24 18.6294 24 12.002C24 5.37454 18.6274 0.00195312 12 0.00195312C5.37258 0.00195312 0 5.37454 0 12.002C0 18.6294 5.37258 24.002 12 24.002Z" fill="#F0F0F0"/>
<path d="M24.0009 12.003C24.0009 7.24547 21.2322 3.13473 17.2183 1.19373V22.8122C21.2322 20.8713 24.0009 16.7605 24.0009 12.003Z" fill="#D80027"/>
<path d="M0.000488281 12.0024C0.000488281 16.7599 2.76916 20.8707 6.78311 22.8117V1.19312C2.76916 3.13412 0.000488281 7.24486 0.000488281 12.0024Z" fill="#D80027"/>
<path d="M14.0875 13.5682L16.1744 12.5247L15.131 12.003V10.9595L13.044 12.003L14.0875 9.91603H13.044L12.0006 8.35083L10.9571 9.91603H9.91358L10.9571 12.003L8.8701 10.9595V12.003L7.82666 12.5247L9.91358 13.5682L9.39186 14.6117H11.4788V16.1769H12.5223V14.6117H14.6092L14.0875 13.5682Z" fill="#D80027"/>
</g>
<defs>
<clipPath id="clip0_326_14440">
<rect width="24" height="24" fill="white" transform="translate(0 0.00195312)"/>
</clipPath>
</defs>
</svg>
