<svg width="27" height="30" viewBox="0 0 27 30" fill="none" xmlns="http://www.w3.org/2000/svg">
<path fill-rule="evenodd" clip-rule="evenodd" d="M1.19413 1.7146C1.0502 2.01741 0.970215 2.39455 0.970215 2.83725V27.1649C0.970215 27.6085 1.05029 27.9857 1.1944 28.2883L14.4802 15.0006L1.19413 1.7146ZM1.88793 29.009C2.38457 29.245 3.04403 29.1876 3.76531 28.7786L19.3832 19.9037L15.1873 15.7078L1.88793 29.009ZM20.2857 19.392L25.2164 16.5906C26.7531 15.7161 26.7531 14.2872 25.2164 13.4138L20.2835 10.6108L15.8943 15.0006L20.2857 19.392ZM19.3818 10.0984L3.76531 1.22466C3.044 0.814767 2.3845 0.757793 1.88786 0.994114L15.1872 14.2935L19.3818 10.0984Z" fill="black"/>
</svg>
