<svg width="14" height="14" viewBox="0 0 14 14" fill="none" xmlns="http://www.w3.org/2000/svg">
<path d="M12.5 0.743408H1.5C1.23478 0.743408 0.98043 0.848765 0.792893 1.0363C0.605357 1.22384 0.5 1.47819 0.5 1.74341V12.7434C0.5 13.0086 0.605357 13.263 0.792893 13.4505C0.98043 13.6381 1.23478 13.7434 1.5 13.7434H12.5C12.7652 13.7434 13.0196 13.6381 13.2071 13.4505C13.3946 13.263 13.5 13.0086 13.5 12.7434V1.74341C13.5 1.47819 13.3946 1.22384 13.2071 1.0363C13.0196 0.848765 12.7652 0.743408 12.5 0.743408ZM12.5 12.7434H1.5V1.74341H12.5V12.7434ZM5 6.24341V10.2434C5 10.376 4.94732 10.5032 4.85355 10.597C4.75979 10.6907 4.63261 10.7434 4.5 10.7434C4.36739 10.7434 4.24021 10.6907 4.14645 10.597C4.05268 10.5032 4 10.376 4 10.2434V6.24341C4 6.1108 4.05268 5.98362 4.14645 5.88985C4.24021 5.79609 4.36739 5.74341 4.5 5.74341C4.63261 5.74341 4.75979 5.79609 4.85355 5.88985C4.94732 5.98362 5 6.1108 5 6.24341ZM10.5 7.99341V10.2434C10.5 10.376 10.4473 10.5032 10.3536 10.597C10.2598 10.6907 10.1326 10.7434 10 10.7434C9.86739 10.7434 9.74021 10.6907 9.64645 10.597C9.55268 10.5032 9.5 10.376 9.5 10.2434V7.99341C9.5 7.66189 9.3683 7.34395 9.13388 7.10952C8.89946 6.8751 8.58152 6.74341 8.25 6.74341C7.91848 6.74341 7.60054 6.8751 7.36612 7.10952C7.1317 7.34395 7 7.66189 7 7.99341V10.2434C7 10.376 6.94732 10.5032 6.85355 10.597C6.75979 10.6907 6.63261 10.7434 6.5 10.7434C6.36739 10.7434 6.24021 10.6907 6.14645 10.597C6.05268 10.5032 6 10.376 6 10.2434V6.24341C6.00062 6.12094 6.04617 6.00295 6.12801 5.91183C6.20985 5.82072 6.32228 5.76281 6.44398 5.74909C6.56569 5.73537 6.68819 5.76679 6.78826 5.8374C6.88833 5.90802 6.959 6.0129 6.98688 6.13216C7.32512 5.9027 7.71947 5.76972 8.12759 5.74748C8.53571 5.72525 8.94218 5.8146 9.30335 6.00595C9.66452 6.19729 9.96674 6.48341 10.1776 6.83356C10.3884 7.18371 10.4999 7.58468 10.5 7.99341ZM5.25 4.49341C5.25 4.64174 5.20601 4.78675 5.1236 4.91009C5.04119 5.03342 4.92406 5.12955 4.78701 5.18632C4.64997 5.24308 4.49917 5.25794 4.35368 5.229C4.2082 5.20006 4.07456 5.12863 3.96967 5.02374C3.86478 4.91885 3.79335 4.78521 3.76441 4.63973C3.73547 4.49424 3.75032 4.34344 3.80709 4.2064C3.86386 4.06935 3.95999 3.95222 4.08332 3.86981C4.20666 3.78739 4.35166 3.74341 4.5 3.74341C4.69891 3.74341 4.88968 3.82243 5.03033 3.96308C5.17098 4.10373 5.25 4.2945 5.25 4.49341Z" fill="#E5E5E5"/>
</svg>
