<svg width="143" height="41" viewBox="0 0 143 41" fill="none" xmlns="http://www.w3.org/2000/svg">
<path d="M28.7 0H12.8L0 12.4875V27.9993L12.8 40.4868H28.7L41.5 27.9993V12.4875L28.7 0ZM15 28.1944L6.80002 20.1946L15 12.1948C18.1 9.17051 23.2 9.17051 26.3 12.1948L34.5 20.1946L26.3 28.1944C23.2 31.2187 18.2 31.2187 15 28.1944Z" fill="white"/>
<path d="M63.54 29.5314C61.236 29.5314 59.42 28.9954 58.092 27.9234C56.764 26.8514 56.092 25.3634 56.076 23.4594H59.772C59.788 24.5954 60.148 25.3874 60.852 25.8354C61.572 26.2834 62.516 26.5074 63.684 26.5074C64.644 26.5074 65.404 26.3234 65.964 25.9554C66.54 25.5874 66.828 25.0674 66.828 24.3954C66.828 24.0114 66.724 23.6914 66.516 23.4354C66.324 23.1634 65.932 22.9234 65.34 22.7154C64.764 22.4914 63.908 22.2834 62.772 22.0914C60.564 21.7234 58.956 21.1154 57.948 20.2674C56.956 19.4034 56.46 18.1954 56.46 16.6434C56.46 15.6834 56.732 14.8274 57.276 14.0754C57.82 13.3234 58.588 12.7394 59.58 12.3234C60.588 11.8914 61.764 11.6754 63.108 11.6754C65.364 11.6754 67.1 12.1874 68.316 13.2114C69.532 14.2354 70.18 15.6674 70.26 17.5074H66.612C66.564 16.5474 66.252 15.8434 65.676 15.3954C65.116 14.9314 64.26 14.6994 63.108 14.6994C62.26 14.6994 61.58 14.8674 61.068 15.2034C60.572 15.5234 60.324 15.9634 60.324 16.5234C60.324 16.9234 60.42 17.2594 60.612 17.5314C60.804 17.7874 61.172 18.0274 61.716 18.2514C62.276 18.4754 63.076 18.6754 64.116 18.8514C65.796 19.1394 67.116 19.5154 68.076 19.9794C69.052 20.4434 69.74 21.0194 70.14 21.7074C70.54 22.3794 70.74 23.2034 70.74 24.1794C70.74 25.8914 70.076 27.2114 68.748 28.1394C67.42 29.0674 65.684 29.5314 63.54 29.5314ZM80.3454 27.8994C79.8334 28.4914 79.2574 28.9154 78.6174 29.1714C77.9774 29.4114 77.2414 29.5314 76.4094 29.5314C75.0334 29.5314 73.9294 29.2034 73.0974 28.5474C72.2654 27.8754 71.8494 26.9314 71.8494 25.7154C71.8494 24.6114 72.2334 23.7714 73.0014 23.1954C73.7694 22.6034 75.0254 22.1554 76.7694 21.8514L80.2494 21.2514V20.6754C80.2494 20.1634 80.0894 19.7714 79.7694 19.4994C79.4654 19.2274 78.9454 19.0914 78.2094 19.0914C77.5374 19.0914 76.9934 19.2434 76.5774 19.5474C76.1774 19.8354 75.9694 20.2514 75.9534 20.7954H72.4494C72.4654 19.3874 73.0014 18.3154 74.0574 17.5794C75.1294 16.8434 76.5054 16.4754 78.1854 16.4754C79.9934 16.4754 81.3614 16.8114 82.2894 17.4834C83.2174 18.1554 83.6814 19.0834 83.6814 20.2674V29.2434H80.3454V27.8994ZM75.4254 25.5954C75.4254 26.0434 75.5854 26.4034 75.9054 26.6754C76.2414 26.9314 76.7214 27.0594 77.3454 27.0594C78.1774 27.0594 78.8654 26.8434 79.4094 26.4114C79.9694 25.9794 80.2494 25.3314 80.2494 24.4674V23.4594L77.4654 24.0114C76.7294 24.1554 76.2014 24.3394 75.8814 24.5634C75.5774 24.7714 75.4254 25.1154 75.4254 25.5954ZM94.9779 21.0834L92.6739 29.2434H88.9779L84.6819 16.7634H88.4739L91.0419 25.1874L93.3219 16.7634H96.6339L98.9139 25.1874L101.482 16.7634H105.274L100.978 29.2434H97.2819L94.9779 21.0834ZM114.447 27.8994C113.935 28.4914 113.359 28.9154 112.719 29.1714C112.079 29.4114 111.343 29.5314 110.511 29.5314C109.135 29.5314 108.031 29.2034 107.199 28.5474C106.367 27.8754 105.951 26.9314 105.951 25.7154C105.951 24.6114 106.335 23.7714 107.103 23.1954C107.871 22.6034 109.127 22.1554 110.871 21.8514L114.351 21.2514V20.6754C114.351 20.1634 114.191 19.7714 113.871 19.4994C113.567 19.2274 113.047 19.0914 112.311 19.0914C111.639 19.0914 111.095 19.2434 110.679 19.5474C110.279 19.8354 110.071 20.2514 110.055 20.7954H106.551C106.567 19.3874 107.103 18.3154 108.159 17.5794C109.231 16.8434 110.607 16.4754 112.287 16.4754C114.095 16.4754 115.463 16.8114 116.391 17.4834C117.319 18.1554 117.783 19.0834 117.783 20.2674V29.2434H114.447V27.8994ZM109.527 25.5954C109.527 26.0434 109.687 26.4034 110.007 26.6754C110.343 26.9314 110.823 27.0594 111.447 27.0594C112.279 27.0594 112.967 26.8434 113.511 26.4114C114.071 25.9794 114.351 25.3314 114.351 24.4674V23.4594L111.567 24.0114C110.831 24.1554 110.303 24.3394 109.983 24.5634C109.679 24.7714 109.527 25.1154 109.527 25.5954ZM123.392 11.9634V25.5234C123.392 25.9074 123.48 26.1874 123.656 26.3634C123.832 26.5394 124.128 26.6274 124.544 26.6274H126.176V29.2434H123.608C122.424 29.2434 121.504 29.0114 120.848 28.5474C120.208 28.0674 119.888 27.1794 119.888 25.8834V11.9634H123.392ZM127.926 16.7634H131.454V29.2434H127.926V16.7634ZM127.926 11.9634H131.43V14.9634H127.926V11.9634ZM135.105 15.3234C135.105 14.0274 135.425 13.1474 136.065 12.6834C136.721 12.2034 137.641 11.9634 138.825 11.9634H141.705V14.5794H139.785C139.353 14.5794 139.049 14.6674 138.873 14.8434C138.713 15.0194 138.633 15.2994 138.633 15.6834V16.7634H141.705V19.3794H138.633V29.2434H135.105V19.3794H132.969V16.7634H135.105V15.3234Z" fill="white"/>
</svg>
