<svg width="16" height="17" viewBox="0 0 16 17" fill="none" xmlns="http://www.w3.org/2000/svg">
<path d="M13.4218 13.4753L9.50926 7.32653L13.3699 3.07966C13.4572 2.98124 13.5022 2.85236 13.4951 2.72098C13.4881 2.5896 13.4295 2.46631 13.3321 2.37782C13.2348 2.28933 13.1064 2.24279 12.975 2.24828C12.8435 2.25377 12.7195 2.31086 12.6299 2.40716L8.95238 6.45216L6.42176 2.47528C6.37663 2.40425 6.31431 2.34576 6.24056 2.30523C6.16682 2.2647 6.08403 2.24343 5.99988 2.24341H2.99988C2.91023 2.24336 2.82222 2.26743 2.74506 2.31307C2.6679 2.35872 2.60443 2.42427 2.5613 2.50286C2.51817 2.58145 2.49697 2.6702 2.49991 2.7598C2.50285 2.8494 2.52982 2.93656 2.57801 3.01216L6.49051 9.16028L2.62988 13.4103C2.5848 13.4587 2.54978 13.5156 2.52684 13.5777C2.50391 13.6397 2.49352 13.7057 2.49629 13.7718C2.49905 13.8379 2.5149 13.9029 2.54293 13.9628C2.57096 14.0227 2.61061 14.0765 2.65958 14.121C2.70854 14.1655 2.76585 14.1998 2.82819 14.222C2.89052 14.2442 2.95664 14.2538 3.02271 14.2502C3.08878 14.2467 3.15349 14.2301 3.21308 14.2013C3.27268 14.1726 3.32597 14.1323 3.36988 14.0828L7.04738 10.0378L9.57801 14.0147C9.6235 14.0851 9.68598 14.143 9.75971 14.183C9.83343 14.2229 9.91602 14.2437 9.99988 14.2434H12.9999C13.0894 14.2434 13.1773 14.2193 13.2544 14.1737C13.3315 14.1281 13.3949 14.0626 13.438 13.9841C13.4811 13.9056 13.5023 13.817 13.4995 13.7275C13.4966 13.638 13.4698 13.5509 13.4218 13.4753ZM10.2743 13.2434L3.91051 3.24341H5.72301L12.0893 13.2434H10.2743Z" fill="#E5E5E5"/>
</svg>
